<?xml version="1.0" standalone="no"?>
<!DOCTYPE svg PUBLIC "-//W3C//DTD SVG 20010904//EN"
 "http://www.w3.org/TR/2001/REC-SVG-20010904/DTD/svg10.dtd">
<svg version="1.0" xmlns="http://www.w3.org/2000/svg"
 width="300.000000pt" height="300.000000pt" viewBox="0 0 300.000000 300.000000"
 preserveAspectRatio="xMidYMid meet">
<metadata>
Created by potrace 1.11, written by Peter Selinger 2001-2013
</metadata>
<g transform="translate(0.000000,300.000000) scale(0.100000,-0.100000)"
fill="#000000" stroke="none">
<path d="M1418 2895 c-2 -1 -32 -5 -68 -9 -211 -21 -372 -76 -540 -185 -63
-41 -58 -37 -139 -115 -125 -121 -207 -286 -228 -458 -3 -29 -5 -61 -5 -71 1
-29 30 -67 59 -78 36 -13 551 -11 577 3 32 17 54 49 72 103 53 160 147 233
314 242 106 6 178 -17 239 -79 69 -68 78 -171 25 -268 -30 -55 -42 -69 -224
-256 -176 -181 -254 -279 -301 -379 -42 -90 -48 -112 -56 -207 -5 -63 -4 -68
22 -92 l28 -26 303 0 c191 0 312 4 326 11 30 13 66 66 83 122 35 118 74 178
233 360 160 183 155 178 210 254 113 156 150 254 157 410 10 252 -128 467
-387 601 -98 51 -198 83 -298 97 -14 2 -41 7 -60 10 -34 6 -336 15 -342 10z"/>
<path d="M1205 842 c-11 -2 -32 -16 -47 -30 l-28 -26 0 -264 0 -265 32 -29 32
-28 288 0 288 0 32 29 32 28 0 259 c0 234 -1 262 -18 286 -10 15 -28 31 -39
35 -22 7 -535 12 -572 5z"/>
</g>
</svg>
